# xmcd
#
# Track frame offsets:
#	150
#	14794
#	26957
#	44226
#	68723
#	83573
#	96764
#	116389
#	137839
#	152289
#	170889
#	192058
#
# Disc length: 2733 seconds
#
# Revision: 0
# Processed by: cddbd v1.5.2PL0 Copyright (c) Steve Scherf et al.
# Submitted via: dBpowerAMP V4.0
#
DISCID=a10aab0c
DTITLE=Jouko Mäki-Lohiluoma - Läpileikkaus
DYEAR=2007
DGENRE=Gospel
TTITLE0=Hienoin mies, jonka tunnen
TTITLE1=Ruumiinavaus
TTITLE2=Koivunlehti
TTITLE3=Viikatemies
TTITLE4=Virtanen kirkossa
TTITLE5=Jeesus kirstus
TTITLE6=Dulce est pro patria mori
TTITLE7=Itketkö sinäkin Jumala
TTITLE8=Rock and rollin synty
TTITLE9=Vielä enemmän kuin muita
TTITLE10=Työmiehen siunaus
TTITLE11=Iltalaulu
EXTD=
EXTT0=
EXTT1=
EXTT2=
EXTT3=
EXTT4=
EXTT5=
EXTT6=
EXTT7=
EXTT8=
EXTT9=
EXTT10=
EXTT11=
PLAYORDER=
